<svg width="900" height="300" viewBox="0 0 900 300" xmlns="http://www.w3.org/2000/svg">
  <defs>
    <radialGradient id="orb1" cx="20%" cy="25%" r="50%">
      <stop offset="0%" stop-color="#1976d2" stop-opacity="0.5"/>
      <stop offset="100%" stop-color="#020c18" stop-opacity="0"/>
    </radialGradient>
    <radialGradient id="orb2" cx="80%" cy="60%" r="45%">
      <stop offset="0%" stop-color="#4fc3f7" stop-opacity="0.25"/>
      <stop offset="100%" stop-color="#020c18" stop-opacity="0"/>
    </radialGradient>
    <radialGradient id="orb3" cx="50%" cy="90%" r="40%">
      <stop offset="0%" stop-color="#0d47a1" stop-opacity="0.4"/>
      <stop offset="100%" stop-color="#020c18" stop-opacity="0"/>
    </radialGradient>
    <radialGradient id="nameGlow" cx="50%" cy="50%" r="50%">
      <stop offset="0%" stop-color="#4fc3f7" stop-opacity="1"/>
      <stop offset="60%" stop-color="#1976d2" stop-opacity="0.8"/>
      <stop offset="100%" stop-color="#0d47a1" stop-opacity="0"/>
    </radialGradient>
    <filter id="glow" x="-50%" y="-50%" width="200%" height="200%">
      <feGaussianBlur stdDeviation="4" result="blur"/>
      <feComposite in="SourceGraphic" in2="blur" operator="over"/>
    </filter>
    <filter id="glowStrong" x="-80%" y="-80%" width="260%" height="260%">
      <feGaussianBlur stdDeviation="10" result="blur"/>
      <feComposite in="SourceGraphic" in2="blur" operator="over"/>
    </filter>
    <filter id="softGlow" x="-30%" y="-30%" width="160%" height="160%">
      <feGaussianBlur stdDeviation="3" result="blur"/>
      <feComposite in="SourceGraphic" in2="blur" operator="over"/>
    </filter>
    <linearGradient id="beamGrad" x1="0%" y1="0%" x2="100%" y2="0%">
      <stop offset="0%" stop-color="#4fc3f7" stop-opacity="0"/>
      <stop offset="50%" stop-color="#4fc3f7" stop-opacity="1"/>
      <stop offset="100%" stop-color="#4fc3f7" stop-opacity="0"/>
    </linearGradient>
    <clipPath id="clip">
      <rect width="900" height="300"/>
    </clipPath>

    <style>
      /* BG orbs breathing */
      .orb1 { animation: orbPulse1 6s ease-in-out infinite; }
      .orb2 { animation: orbPulse2 7s ease-in-out infinite; }
      .orb3 { animation: orbPulse3 8s ease-in-out infinite; }
      @keyframes orbPulse1 { 0%,100%{opacity:0.7;transform:scale(1) translateY(0px)} 50%{opacity:1;transform:scale(1.1) translateY(-8px)} }
      @keyframes orbPulse2 { 0%,100%{opacity:0.5;transform:scale(1) translateY(0px)} 50%{opacity:0.9;transform:scale(1.08) translateY(6px)} }
      @keyframes orbPulse3 { 0%,100%{opacity:0.6;transform:scale(1)} 50%{opacity:1;transform:scale(1.12)} }

      /* Hex grid pulse */
      .hex { animation: hexFade 4s ease-in-out infinite; }
      .hex:nth-child(odd)  { animation-delay: 0.5s; }
      .hex:nth-child(3n)   { animation-delay: 1.2s; }
      .hex:nth-child(5n)   { animation-delay: 2.1s; }
      .hex:nth-child(7n)   { animation-delay: 3.0s; }
      @keyframes hexFade { 0%,100%{opacity:0.04} 50%{opacity:0.14} }

      /* Particles float up */
      .p1  { animation: floatUp1  7s linear infinite; animation-delay: 0s;   }
      .p2  { animation: floatUp2  9s linear infinite; animation-delay: 1s;   }
      .p3  { animation: floatUp3  6s linear infinite; animation-delay: 2s;   }
      .p4  { animation: floatUp4  8s linear infinite; animation-delay: 0.5s; }
      .p5  { animation: floatUp5 10s linear infinite; animation-delay: 3s;   }
      .p6  { animation: floatUp1  7s linear infinite; animation-delay: 4s;   }
      .p7  { animation: floatUp2  8s linear infinite; animation-delay: 1.5s; }
      .p8  { animation: floatUp3  9s linear infinite; animation-delay: 2.5s; }
      .p9  { animation: floatUp4  6s linear infinite; animation-delay: 3.5s; }
      .p10 { animation: floatUp5  7s linear infinite; animation-delay: 5s;   }
      .p11 { animation: floatUp1  8s linear infinite; animation-delay: 0.8s; }
      .p12 { animation: floatUp2  6s linear infinite; animation-delay: 4.5s; }
      .p13 { animation: floatUp3  9s linear infinite; animation-delay: 1.8s; }
      .p14 { animation: floatUp4  7s linear infinite; animation-delay: 2.8s; }
      .p15 { animation: floatUp5  8s linear infinite; animation-delay: 3.8s; }
      .p16 { animation: floatUp1 10s linear infinite; animation-delay: 6s;   }
      .p17 { animation: floatUp2  7s linear infinite; animation-delay: 0.3s; }
      .p18 { animation: floatUp3  8s linear infinite; animation-delay: 5.5s; }
      .p19 { animation: floatUp4  6s linear infinite; animation-delay: 1.3s; }
      .p20 { animation: floatUp5  9s linear infinite; animation-delay: 4.2s; }

      @keyframes floatUp1 { 0%{transform:translateY(0px) translateX(0px);opacity:0.8} 50%{opacity:0.4} 100%{transform:translateY(-280px) translateX(8px);opacity:0} }
      @keyframes floatUp2 { 0%{transform:translateY(0px) translateX(0px);opacity:0.6} 50%{opacity:0.3} 100%{transform:translateY(-280px) translateX(-6px);opacity:0} }
      @keyframes floatUp3 { 0%{transform:translateY(0px) translateX(0px);opacity:0.9} 50%{opacity:0.5} 100%{transform:translateY(-280px) translateX(12px);opacity:0} }
      @keyframes floatUp4 { 0%{transform:translateY(0px) translateX(0px);opacity:0.5} 50%{opacity:0.2} 100%{transform:translateY(-280px) translateX(-10px);opacity:0} }
      @keyframes floatUp5 { 0%{transform:translateY(0px) translateX(0px);opacity:0.7} 50%{opacity:0.35} 100%{transform:translateY(-280px) translateX(5px);opacity:0} }

      /* Light streaks */
      .streak { animation: streakMove 4s linear infinite; }
      .streak1 { animation: streakMove  4s linear infinite; animation-delay:0s;   }
      .streak2 { animation: streakMove  6s linear infinite; animation-delay:1.5s; }
      .streak3 { animation: streakMove  5s linear infinite; animation-delay:3s;   }
      .streak4 { animation: streakMove  7s linear infinite; animation-delay:0.8s; }
      .streak5 { animation: streakMove  4.5s linear infinite; animation-delay:2.5s; }
      @keyframes streakMove { 0%{transform:translateY(300px);opacity:0} 10%{opacity:0.3} 80%{opacity:0.2} 100%{transform:translateY(-50px);opacity:0} }

      /* NAME glow pulse — the main event */
      .name-shadow {
        animation: nameGlowPulse 3s ease-in-out infinite;
      }
      .name-text {
        animation: nameGlowPulse 3s ease-in-out infinite;
      }
      @keyframes nameGlowPulse {
        0%,100% { opacity: 0.15; }
        50%     { opacity: 1;    }
      }

      .name-main {
        animation: nameMainPulse 3s ease-in-out infinite;
      }
      @keyframes nameMainPulse {
        0%,100% { filter: url(#softGlow); }
        50%     { filter: url(#glowStrong); }
      }

      /* Underline beam sweep */
      .beam-line {
        animation: beamSweep 3s ease-in-out infinite;
      }
      @keyframes beamSweep {
        0%,100% { opacity: 0.3; transform: scaleX(0.4); }
        50%     { opacity: 1;   transform: scaleX(1);   }
      }

      /* Subtitle fade pulse */
      .subtitle {
        animation: subtitlePulse 4s ease-in-out infinite;
        animation-delay: 0.5s;
      }
      @keyframes subtitlePulse {
        0%,100% { opacity: 0.55; }
        50%     { opacity: 0.9;  }
      }

      /* Dot blink */
      .dot1 { animation: dotBlink 2s ease-in-out infinite; animation-delay:0s; }
      .dot2 { animation: dotBlink 2s ease-in-out infinite; animation-delay:0.7s; }
      .dot3 { animation: dotBlink 2s ease-in-out infinite; animation-delay:1.4s; }
      @keyframes dotBlink { 0%,100%{opacity:0.2} 50%{opacity:0.8} }
    </style>
  </defs>

  <g clip-path="url(#clip)">
    <!-- BACKGROUND -->
    <rect width="900" height="300" fill="#020c18"/>

    <!-- ORB GLOWS -->
    <ellipse class="orb1" cx="180" cy="75"  rx="280" ry="200" fill="url(#orb1)"/>
    <ellipse class="orb2" cx="720" cy="180" rx="260" ry="180" fill="url(#orb2)"/>
    <ellipse class="orb3" cx="450" cy="270" rx="220" ry="140" fill="url(#orb3)"/>

    <!-- HEX GRID -->
    <!-- Row 0 -->
    <polygon class="hex" points="40,10 60,10 70,26 60,42 40,42 30,26" fill="none" stroke="#1565c0" stroke-width="0.6"/>
    <polygon class="hex" points="110,10 130,10 140,26 130,42 110,42 100,26" fill="none" stroke="#1565c0" stroke-width="0.6"/>
    <polygon class="hex" points="180,10 200,10 210,26 200,42 180,42 170,26" fill="none" stroke="#1565c0" stroke-width="0.6"/>
    <polygon class="hex" points="250,10 270,10 280,26 270,42 250,42 240,26" fill="none" stroke="#1565c0" stroke-width="0.6"/>
    <polygon class="hex" points="320,10 340,10 350,26 340,42 320,42 310,26" fill="none" stroke="#1565c0" stroke-width="0.6"/>
    <polygon class="hex" points="390,10 410,10 420,26 410,42 390,42 380,26" fill="none" stroke="#1565c0" stroke-width="0.6"/>
    <polygon class="hex" points="460,10 480,10 490,26 480,42 460,42 450,26" fill="none" stroke="#1565c0" stroke-width="0.6"/>
    <polygon class="hex" points="530,10 550,10 560,26 550,42 530,42 520,26" fill="none" stroke="#1565c0" stroke-width="0.6"/>
    <polygon class="hex" points="600,10 620,10 630,26 620,42 600,42 590,26" fill="none" stroke="#1565c0" stroke-width="0.6"/>
    <polygon class="hex" points="670,10 690,10 700,26 690,42 670,42 660,26" fill="none" stroke="#1565c0" stroke-width="0.6"/>
    <polygon class="hex" points="740,10 760,10 770,26 760,42 740,42 730,26" fill="none" stroke="#1565c0" stroke-width="0.6"/>
    <polygon class="hex" points="810,10 830,10 840,26 830,42 810,42 800,26" fill="none" stroke="#1565c0" stroke-width="0.6"/>
    <polygon class="hex" points="880,10 900,10 900,26 900,42 880,42 870,26" fill="none" stroke="#1565c0" stroke-width="0.6"/>
    <!-- Row 1 offset -->
    <polygon class="hex" points="75,42 95,42 105,58 95,74 75,74 65,58"   fill="none" stroke="#1565c0" stroke-width="0.6"/>
    <polygon class="hex" points="145,42 165,42 175,58 165,74 145,74 135,58" fill="none" stroke="#1565c0" stroke-width="0.6"/>
    <polygon class="hex" points="215,42 235,42 245,58 235,74 215,74 205,58" fill="none" stroke="#1565c0" stroke-width="0.6"/>
    <polygon class="hex" points="285,42 305,42 315,58 305,74 285,74 275,58" fill="none" stroke="#1565c0" stroke-width="0.6"/>
    <polygon class="hex" points="355,42 375,42 385,58 375,74 355,74 345,58" fill="none" stroke="#1565c0" stroke-width="0.6"/>
    <polygon class="hex" points="425,42 445,42 455,58 445,74 425,74 415,58" fill="none" stroke="#1565c0" stroke-width="0.6"/>
    <polygon class="hex" points="495,42 515,42 525,58 515,74 495,74 485,58" fill="none" stroke="#1565c0" stroke-width="0.6"/>
    <polygon class="hex" points="565,42 585,42 595,58 585,74 565,74 555,58" fill="none" stroke="#1565c0" stroke-width="0.6"/>
    <polygon class="hex" points="635,42 655,42 665,58 655,74 635,74 625,58" fill="none" stroke="#1565c0" stroke-width="0.6"/>
    <polygon class="hex" points="705,42 725,42 735,58 725,74 705,74 695,58" fill="none" stroke="#1565c0" stroke-width="0.6"/>
    <polygon class="hex" points="775,42 795,42 805,58 795,74 775,74 765,58" fill="none" stroke="#1565c0" stroke-width="0.6"/>
    <polygon class="hex" points="845,42 865,42 875,58 865,74 845,74 835,58" fill="none" stroke="#1565c0" stroke-width="0.6"/>
    <!-- Row 2 -->
    <polygon class="hex" points="40,74 60,74 70,90 60,106 40,106 30,90"   fill="none" stroke="#1565c0" stroke-width="0.6"/>
    <polygon class="hex" points="110,74 130,74 140,90 130,106 110,106 100,90" fill="none" stroke="#1565c0" stroke-width="0.6"/>
    <polygon class="hex" points="180,74 200,74 210,90 200,106 180,106 170,90" fill="none" stroke="#1565c0" stroke-width="0.6"/>
    <polygon class="hex" points="250,74 270,74 280,90 270,106 250,106 240,90" fill="none" stroke="#1565c0" stroke-width="0.6"/>
    <polygon class="hex" points="320,74 340,74 350,90 340,106 320,106 310,90" fill="none" stroke="#1565c0" stroke-width="0.6"/>
    <polygon class="hex" points="390,74 410,74 420,90 410,106 390,106 380,90" fill="none" stroke="#1565c0" stroke-width="0.6"/>
    <polygon class="hex" points="460,74 480,74 490,90 480,106 460,106 450,90" fill="none" stroke="#1565c0" stroke-width="0.6"/>
    <polygon class="hex" points="530,74 550,74 560,90 550,106 530,106 520,90" fill="none" stroke="#1565c0" stroke-width="0.6"/>
    <polygon class="hex" points="600,74 620,74 630,90 620,106 600,106 590,90" fill="none" stroke="#1565c0" stroke-width="0.6"/>
    <polygon class="hex" points="670,74 690,74 700,90 690,106 670,106 660,90" fill="none" stroke="#1565c0" stroke-width="0.6"/>
    <polygon class="hex" points="740,74 760,74 770,90 760,106 740,106 730,90" fill="none" stroke="#1565c0" stroke-width="0.6"/>
    <polygon class="hex" points="810,74 830,74 840,90 830,106 810,106 800,90" fill="none" stroke="#1565c0" stroke-width="0.6"/>
    <!-- Row 3 offset -->
    <polygon class="hex" points="75,106 95,106 105,122 95,138 75,138 65,122" fill="none" stroke="#1565c0" stroke-width="0.6"/>
    <polygon class="hex" points="145,106 165,106 175,122 165,138 145,138 135,122" fill="none" stroke="#1565c0" stroke-width="0.6"/>
    <polygon class="hex" points="215,106 235,106 245,122 235,138 215,138 205,122" fill="none" stroke="#1565c0" stroke-width="0.6"/>
    <polygon class="hex" points="285,106 305,106 315,122 305,138 285,138 275,122" fill="none" stroke="#1565c0" stroke-width="0.6"/>
    <polygon class="hex" points="355,106 375,106 385,122 375,138 355,138 345,122" fill="none" stroke="#1565c0" stroke-width="0.6"/>
    <polygon class="hex" points="425,106 445,106 455,122 445,138 425,138 415,122" fill="none" stroke="#1565c0" stroke-width="0.6"/>
    <polygon class="hex" points="495,106 515,106 525,122 515,138 495,138 485,122" fill="none" stroke="#1565c0" stroke-width="0.6"/>
    <polygon class="hex" points="565,106 585,106 595,122 585,138 565,138 555,122" fill="none" stroke="#1565c0" stroke-width="0.6"/>
    <polygon class="hex" points="635,106 655,106 665,122 655,138 635,138 625,122" fill="none" stroke="#1565c0" stroke-width="0.6"/>
    <polygon class="hex" points="705,106 725,106 735,122 725,138 705,138 695,122" fill="none" stroke="#1565c0" stroke-width="0.6"/>
    <polygon class="hex" points="775,106 795,106 805,122 795,138 775,138 765,122" fill="none" stroke="#1565c0" stroke-width="0.6"/>
    <polygon class="hex" points="845,106 865,106 875,122 865,138 845,138 835,122" fill="none" stroke="#1565c0" stroke-width="0.6"/>
    <!-- Row 4 -->
    <polygon class="hex" points="40,138 60,138 70,154 60,170 40,170 30,154" fill="none" stroke="#1565c0" stroke-width="0.6"/>
    <polygon class="hex" points="110,138 130,138 140,154 130,170 110,170 100,154" fill="none" stroke="#1565c0" stroke-width="0.6"/>
    <polygon class="hex" points="180,138 200,138 210,154 200,170 180,170 170,154" fill="none" stroke="#1565c0" stroke-width="0.6"/>
    <polygon class="hex" points="250,138 270,138 280,154 270,170 250,170 240,154" fill="none" stroke="#1565c0" stroke-width="0.6"/>
    <polygon class="hex" points="320,138 340,138 350,154 340,170 320,170 310,154" fill="none" stroke="#1565c0" stroke-width="0.6"/>
    <polygon class="hex" points="390,138 410,138 420,154 410,170 390,170 380,154" fill="none" stroke="#1565c0" stroke-width="0.6"/>
    <polygon class="hex" points="460,138 480,138 490,154 480,170 460,170 450,154" fill="none" stroke="#1565c0" stroke-width="0.6"/>
    <polygon class="hex" points="530,138 550,138 560,154 550,170 530,170 520,154" fill="none" stroke="#1565c0" stroke-width="0.6"/>
    <polygon class="hex" points="600,138 620,138 630,154 620,170 600,170 590,154" fill="none" stroke="#1565c0" stroke-width="0.6"/>
    <polygon class="hex" points="670,138 690,138 700,154 690,170 670,170 660,154" fill="none" stroke="#1565c0" stroke-width="0.6"/>
    <polygon class="hex" points="740,138 760,138 770,154 760,170 740,170 730,154" fill="none" stroke="#1565c0" stroke-width="0.6"/>
    <polygon class="hex" points="810,138 830,138 840,154 830,170 810,170 800,154" fill="none" stroke="#1565c0" stroke-width="0.6"/>
    <!-- Row 5 offset -->
    <polygon class="hex" points="75,170 95,170 105,186 95,202 75,202 65,186" fill="none" stroke="#1565c0" stroke-width="0.6"/>
    <polygon class="hex" points="145,170 165,170 175,186 165,202 145,202 135,186" fill="none" stroke="#1565c0" stroke-width="0.6"/>
    <polygon class="hex" points="215,170 235,170 245,186 235,202 215,202 205,186" fill="none" stroke="#1565c0" stroke-width="0.6"/>
    <polygon class="hex" points="285,170 305,170 315,186 305,202 285,202 275,186" fill="none" stroke="#1565c0" stroke-width="0.6"/>
    <polygon class="hex" points="355,170 375,170 385,186 375,202 355,202 345,186" fill="none" stroke="#1565c0" stroke-width="0.6"/>
    <polygon class="hex" points="425,170 445,170 455,186 445,202 425,202 415,186" fill="none" stroke="#1565c0" stroke-width="0.6"/>
    <polygon class="hex" points="495,170 515,170 525,186 515,202 495,202 485,186" fill="none" stroke="#1565c0" stroke-width="0.6"/>
    <polygon class="hex" points="565,170 585,170 595,186 585,202 565,202 555,186" fill="none" stroke="#1565c0" stroke-width="0.6"/>
    <polygon class="hex" points="635,170 655,170 665,186 655,202 635,202 625,186" fill="none" stroke="#1565c0" stroke-width="0.6"/>
    <polygon class="hex" points="705,170 725,170 735,186 725,202 705,202 695,186" fill="none" stroke="#1565c0" stroke-width="0.6"/>
    <polygon class="hex" points="775,170 795,170 805,186 795,202 775,202 765,186" fill="none" stroke="#1565c0" stroke-width="0.6"/>
    <polygon class="hex" points="845,170 865,170 875,186 865,202 845,202 835,186" fill="none" stroke="#1565c0" stroke-width="0.6"/>
    <!-- Row 6 -->
    <polygon class="hex" points="40,202 60,202 70,218 60,234 40,234 30,218" fill="none" stroke="#1565c0" stroke-width="0.6"/>
    <polygon class="hex" points="110,202 130,202 140,218 130,234 110,234 100,218" fill="none" stroke="#1565c0" stroke-width="0.6"/>
    <polygon class="hex" points="180,202 200,202 210,218 200,234 180,234 170,218" fill="none" stroke="#1565c0" stroke-width="0.6"/>
    <polygon class="hex" points="250,202 270,202 280,218 270,234 250,234 240,218" fill="none" stroke="#1565c0" stroke-width="0.6"/>
    <polygon class="hex" points="320,202 340,202 350,218 340,234 320,234 310,218" fill="none" stroke="#1565c0" stroke-width="0.6"/>
    <polygon class="hex" points="390,202 410,202 420,218 410,234 390,234 380,218" fill="none" stroke="#1565c0" stroke-width="0.6"/>
    <polygon class="hex" points="460,202 480,202 490,218 480,234 460,234 450,218" fill="none" stroke="#1565c0" stroke-width="0.6"/>
    <polygon class="hex" points="530,202 550,202 560,218 550,234 530,234 520,218" fill="none" stroke="#1565c0" stroke-width="0.6"/>
    <polygon class="hex" points="600,202 620,202 630,218 620,234 600,234 590,218" fill="none" stroke="#1565c0" stroke-width="0.6"/>
    <polygon class="hex" points="670,202 690,202 700,218 690,234 670,234 660,218" fill="none" stroke="#1565c0" stroke-width="0.6"/>
    <polygon class="hex" points="740,202 760,202 770,218 760,234 740,234 730,218" fill="none" stroke="#1565c0" stroke-width="0.6"/>
    <polygon class="hex" points="810,202 830,202 840,218 830,234 810,234 800,218" fill="none" stroke="#1565c0" stroke-width="0.6"/>
    <!-- Row 7 offset -->
    <polygon class="hex" points="75,234 95,234 105,250 95,266 75,266 65,250" fill="none" stroke="#1565c0" stroke-width="0.6"/>
    <polygon class="hex" points="145,234 165,234 175,250 165,266 145,266 135,250" fill="none" stroke="#1565c0" stroke-width="0.6"/>
    <polygon class="hex" points="215,234 235,234 245,250 235,266 215,266 205,250" fill="none" stroke="#1565c0" stroke-width="0.6"/>
    <polygon class="hex" points="285,234 305,234 315,250 305,266 285,266 275,250" fill="none" stroke="#1565c0" stroke-width="0.6"/>
    <polygon class="hex" points="355,234 375,234 385,250 375,266 355,266 345,250" fill="none" stroke="#1565c0" stroke-width="0.6"/>
    <polygon class="hex" points="425,234 445,234 455,250 445,266 425,266 415,250" fill="none" stroke="#1565c0" stroke-width="0.6"/>
    <polygon class="hex" points="495,234 515,234 525,250 515,266 495,266 485,250" fill="none" stroke="#1565c0" stroke-width="0.6"/>
    <polygon class="hex" points="565,234 585,234 595,250 585,266 565,266 555,250" fill="none" stroke="#1565c0" stroke-width="0.6"/>
    <polygon class="hex" points="635,234 655,234 665,250 655,266 635,266 625,250" fill="none" stroke="#1565c0" stroke-width="0.6"/>
    <polygon class="hex" points="705,234 725,234 735,250 725,266 705,266 695,250" fill="none" stroke="#1565c0" stroke-width="0.6"/>
    <polygon class="hex" points="775,234 795,234 805,250 795,266 775,266 765,250" fill="none" stroke="#1565c0" stroke-width="0.6"/>
    <polygon class="hex" points="845,234 865,234 875,250 865,266 845,266 835,250" fill="none" stroke="#1565c0" stroke-width="0.6"/>

    <!-- LIGHT STREAKS -->
    <line class="streak1" x1="120" y1="300" x2="120" y2="180" stroke="#4fc3f7" stroke-width="0.8" stroke-opacity="0.25"/>
    <line class="streak2" x1="280" y1="300" x2="280" y2="200" stroke="#4fc3f7" stroke-width="0.5" stroke-opacity="0.2"/>
    <line class="streak3" x1="520" y1="300" x2="520" y2="160" stroke="#90caf9" stroke-width="0.7" stroke-opacity="0.18"/>
    <line class="streak4" x1="680" y1="300" x2="680" y2="190" stroke="#4fc3f7" stroke-width="0.6" stroke-opacity="0.22"/>
    <line class="streak5" x1="820" y1="300" x2="820" y2="210" stroke="#1976d2" stroke-width="0.9" stroke-opacity="0.2"/>
    <line class="streak1" x1="60"  y1="300" x2="60"  y2="220" stroke="#42a5f5" stroke-width="0.5" stroke-opacity="0.15" style="animation-delay:2s"/>
    <line class="streak2" x1="380" y1="300" x2="380" y2="170" stroke="#4fc3f7" stroke-width="0.8" stroke-opacity="0.2" style="animation-delay:3.5s"/>
    <line class="streak3" x1="750" y1="300" x2="750" y2="200" stroke="#90caf9" stroke-width="0.6" stroke-opacity="0.18" style="animation-delay:1s"/>

    <!-- FLOATING PARTICLES -->
    <circle class="p1"  cx="45"  cy="280" r="1.5" fill="#4fc3f7" fill-opacity="0.7"/>
    <circle class="p2"  cx="100" cy="260" r="1.0" fill="#90caf9" fill-opacity="0.6"/>
    <circle class="p3"  cx="160" cy="290" r="2.0" fill="#4fc3f7" fill-opacity="0.5"/>
    <circle class="p4"  cx="220" cy="270" r="1.2" fill="#42a5f5" fill-opacity="0.8"/>
    <circle class="p5"  cx="290" cy="285" r="1.8" fill="#4fc3f7" fill-opacity="0.6"/>
    <circle class="p6"  cx="350" cy="275" r="1.0" fill="#90caf9" fill-opacity="0.7"/>
    <circle class="p7"  cx="410" cy="290" r="1.5" fill="#4fc3f7" fill-opacity="0.5"/>
    <circle class="p8"  cx="470" cy="265" r="2.0" fill="#1976d2" fill-opacity="0.8"/>
    <circle class="p9"  cx="540" cy="280" r="1.2" fill="#4fc3f7" fill-opacity="0.6"/>
    <circle class="p10" cx="600" cy="270" r="1.8" fill="#90caf9" fill-opacity="0.5"/>
    <circle class="p11" cx="660" cy="290" r="1.0" fill="#42a5f5" fill-opacity="0.7"/>
    <circle class="p12" cx="720" cy="275" r="1.5" fill="#4fc3f7" fill-opacity="0.6"/>
    <circle class="p13" cx="780" cy="285" r="2.0" fill="#90caf9" fill-opacity="0.5"/>
    <circle class="p14" cx="840" cy="265" r="1.2" fill="#4fc3f7" fill-opacity="0.8"/>
    <circle class="p15" cx="880" cy="280" r="1.8" fill="#1976d2" fill-opacity="0.6"/>
    <circle class="p16" cx="75"  cy="295" r="1.0" fill="#4fc3f7" fill-opacity="0.5"/>
    <circle class="p17" cx="190" cy="285" r="1.5" fill="#90caf9" fill-opacity="0.7"/>
    <circle class="p18" cx="450" cy="295" r="1.2" fill="#4fc3f7" fill-opacity="0.6"/>
    <circle class="p19" cx="630" cy="288" r="1.8" fill="#42a5f5" fill-opacity="0.5"/>
    <circle class="p20" cx="860" cy="292" r="1.0" fill="#90caf9" fill-opacity="0.7"/>

    <!-- NAME GLOW LAYERS (blurred behind) -->
    <text class="name-shadow" x="450" y="155" text-anchor="middle" font-family="'Arial Black', 'Impact', sans-serif" font-weight="900" font-size="88" letter-spacing="18" fill="#4fc3f7" filter="url(#glowStrong)" fill-opacity="0.6">NIKESH</text>
    <text class="name-shadow" x="450" y="155" text-anchor="middle" font-family="'Arial Black', 'Impact', sans-serif" font-weight="900" font-size="88" letter-spacing="18" fill="#90caf9" filter="url(#glow)" fill-opacity="0.4">NIKESH</text>

    <!-- NAME MAIN -->
    <text class="name-main" x="450" y="155" text-anchor="middle" font-family="'Arial Black', 'Impact', sans-serif" font-weight="900" font-size="88" letter-spacing="18" fill="#e0f7ff">NIKESH</text>

    <!-- UNDERLINE BEAM -->
    <rect class="beam-line" x="270" y="168" width="360" height="2" rx="1" fill="url(#beamGrad)"/>

    <!-- SUBTITLE -->
    <text class="subtitle" x="450" y="205" text-anchor="middle" font-family="'Courier New', monospace" font-size="13" letter-spacing="5" fill="#4fc3f7">BACKEND DEVELOPER · API ARCHITECT · PROBLEM SOLVER</text>

    <!-- ANIMATED DOTS -->
    <circle class="dot1" cx="370" cy="230" r="2.5" fill="#4fc3f7"/>
    <circle class="dot2" cx="450" cy="230" r="2.5" fill="#4fc3f7"/>
    <circle class="dot3" cx="530" cy="230" r="2.5" fill="#4fc3f7"/>

    <!-- Bottom fade -->
    <rect x="0" y="240" width="900" height="60" fill="url(#orb3)" opacity="0.3"/>
  </g>
</svg>
